<svg width="289" height="285" viewBox="0 0 289 285" fill="none" xmlns="http://www.w3.org/2000/svg">
<path fill-rule="evenodd" clip-rule="evenodd" d="M284.146 179.259C287.313 167.532 289 155.21 289 142.5C289 63.7994 224.305 0 144.5 0C64.6949 0 0 63.7994 0 142.5C0 220.645 63.7843 284.098 142.811 284.99C73.565 279.797 19 222.098 19 151.686C19 77.8531 78.9938 18 153 18C227.006 18 287 77.8531 287 151.686C287 161.138 286.017 170.361 284.146 179.259Z" fill="#0098D9"/>
<path d="M270 167C242.354 197.736 234.263 197.736 214.371 197.736C194.48 197.736 182.669 196.805 153 167C181.994 181.368 172.104 180.971 214.371 180.971C256.639 180.971 247.074 179.505 270 167Z" fill="#0098D9"/>
<path d="M144 167C116.354 197.736 108.263 197.736 88.3714 197.736C68.48 197.736 56.6686 196.805 27 167C55.9943 181.368 46.1043 180.971 88.3714 180.971C130.639 180.971 121.074 179.505 144 167Z" fill="#0098D9"/>
</svg>
